:SAMPLES-PER-SECOND 30
:FULLY-SPECIFIED
:DEGREES
488
root  30.3598 38.8568 -0.0235475 -148.676 -84.9926 142.591
RightUpLeg  -7.78331 -1.68427 -10.096
RightLeg  42.3177 2.62035 2.26425
RightFoot  -6.8696 -0.460674 10.5643
RightToes  -9.31324e-010 0 -3.6325e-017
Spine  8.09894 1.5827 1.14288
Spine1  1.96613 2.8164 -8.08163
HEad  -8.33232 -12.5939 -1.15379
LeftShoulder1  -0.302233 4.28141 -32.7326
LeftArm  -3.42556 12.6339 -36.0633
LeftForeArm  40.1549 -5.382 -9.02939
LeftHand  -0.15073 8.24933 -4.03108
RightShoulder  -0.806782 -5.74224 29.4139
RightArm  31.9893 10.6176 52.1091
RightForeArm  4.12246 19.3217 5.70409
RightHand  -0.288082 5.87281 -3.29687
LeftUpLeg  -5.72232 4.64263 -6.29619
LeftLeg  15.9957 -4.9179 -2.2945
LeftFoot  -3.83494 -0.485911 7.74524
LeftToes  8.61288e-010 -5.99147e-011 2.1039e-011
489
root  31.4203 38.7002 -0.06886 -141.4 -84.7967 134.933
RightUpLeg  -4.50317 -1.19075 -10.8242
RightLeg  45.6365 3.46035 3.4778
RightFoot  -7.75817 -0.390725 10.8025
RightToes  -9.31324e-010 0 -3.6325e-017
Spine  7.38344 2.12311 1.27682
Spine1  2.83477 3.52103 -8.91544
HEad  -6.40904 -12.9009 -1.07197
LeftShoulder1  -0.405359 4.54172 -32.9095
LeftArm  -2.93914 14.5504 -33.9218
LeftForeArm  40.9901 -4.70023 -9.10179
LeftHand  -0.241798 10.2306 -4.26483
RightShoulder  -0.85965 -5.88156 29.5501
RightArm  32.7434 11.4 52.2761
RightForeArm  2.11143 21.8328 4.98719
RightHand  -0.39583 5.71219 -4.45634
LeftUpLeg  -7.24574 4.63397 -6.80432
LeftLeg  16.1653 -4.9791 -2.51656
LeftFoot  -2.50657 -0.544368 7.23469
LeftToes  8.61288e-010 -5.99147e-011 2.1039e-011
490
root  32.542 38.4959 -0.117644 -135.281 -84.7278 128.367
RightUpLeg  -0.846384 -0.711817 -11.0734
RightLeg  47.3733 4.90598 5.37007
RightFoot  -8.78535 -0.329806 12.0504
RightToes  -9.31324e-010 0 -3.6325e-017
Spine  7.10685 2.58967 1.9688
Spine1  3.36266 4.23133 -9.88036
HEad  -4.43881 -12.7185 -1.60391
LeftShoulder1  -0.446542 4.64114 -33.123
LeftArm  -2.75553 16.7301 -31.8439
LeftForeArm  40.6691 -5.3696 -8.97274
LeftHand  -0.248282 10.549 -4.13749
RightShoulder  -0.823147 -5.79114 29.3715
RightArm  31.9069 11.8942 52.5643
RightForeArm  3.22455 23.5395 4.84583
RightHand  -0.381898 5.96537 -4.22795
LeftUpLeg  -9.00159 4.71411 -7.26443
LeftLeg  16.7973 -5.26315 -2.56434
LeftFoot  -1.54134 -0.54445 6.44747
LeftToes  8.61288e-010 -5.99147e-011 2.1039e-011
491
root  33.7344 38.2608 -0.182134 -131.928 -84.6018 124.531
RightUpLeg  2.88973 0.0822015 -10.7593
RightLeg  47.5098 7.53801 8.40535
RightFoot  -9.11824 -0.3368 13.9752
RightToes  -9.31324e-010 0 -3.6325e-017
Spine  7.57275 3.033 2.95984
Spine1  3.10112 4.96567 -11.1942
HEad  -2.70071 -12.8842 -1.84088
LeftShoulder1  -0.459791 4.68912 -32.6471
LeftArm  -2.77447 19.2485 -30.3975
LeftForeArm  39.678 -6.75857 -8.5557
LeftHand  -0.186683 8.56624 -4.77799
RightShoulder  -0.841907 -5.85067 29.2657
RightArm  32.6255 12.7376 53.018
RightForeArm  3.28582 23.8939 4.93701
RightHand  -0.352538 6.11977 -3.8817
LeftUpLeg  -10.9851 4.5381 -7.63012
LeftLeg  17.6494 -5.2954 -2.37792
LeftFoot  -0.296055 -0.565549 5.86529
LeftToes  8.61288e-010 -5.99147e-011 2.1039e-011
492
root  34.9704 37.9869 -0.237232 -129.772 -84.3809 122.226
RightUpLeg  6.09773 0.575191 -10.3358
RightLeg  46.4311 10.6129 11.4347
RightFoot  -9.49083 -0.328336 16.6002
RightToes  -9.31324e-010 0 -3.6325e-017
Spine  7.12446 3.54446 3.9186
Spine1  3.91217 5.78038 -12.0248
HEad  -1.22252 -13.1452 -2.64231
LeftShoulder1  -0.479987 4.74581 -32.5022
LeftArm  -2.41789 20.9923 -29.6946
LeftForeArm  36.683 -8.4867 -8.12539
LeftHand  -0.188659 8.64916 -4.83945
RightShoulder  -0.770341 -5.64936 29.2612
RightArm  33.5819 14.0183 53.0829
RightForeArm  3.26536 23.6979 4.90325
RightHand  -0.315439 6.23933 -3.48899
LeftUpLeg  -13.2266 4.17058 -7.93925
LeftLeg  18.1739 -5.13215 -2.13393
LeftFoot  0.609641 -0.472979 4.48161
LeftToes  8.61288e-010 -5.99147e-011 2.1039e-011
493
root  36.2634 37.7564 -0.279265 -130.78 -83.9913 123.226
RightUpLeg  8.77341 0.824574 -9.85631
RightLeg  43.9531 12.3245 12.1711
RightFoot  -11.8863 -0.00295396 17.0801
RightToes  -9.31324e-010 0 -3.6325e-017
Spine  6.88764 3.96919 5.01164
Spine1  4.34609 6.54568 -12.7136
HEad  1.11858 -12.2269 -3.12356
LeftShoulder1  -0.508035 4.8266 -32.2704
LeftArm  -1.02784 22.6084 -29.6026
LeftForeArm  31.3655 -10.8309 -7.74412
LeftHand  -0.1613 9.21882 -3.2233
RightShoulder  -0.779534 -5.67659 29.2398
RightArm  35.2992 15.6911 53.4714
RightForeArm  3.49247 22.8379 4.82397
RightHand  -0.192536 6.76096 -2.17585
LeftUpLeg  -15.1474 4.37351 -8.00283
LeftLeg  17.6036 -4.76616 -1.98081
LeftFoot  1.62597 -0.330168 2.81723
LeftToes  8.61288e-010 -5.99147e-011 2.1039e-011
494
root  37.6304 37.606 -0.296428 -133.849 -83.7451 126.279
RightUpLeg  11.1812 0.410722 -9.31495
RightLeg  39.0977 12.934 10.8187
RightFoot  -15.9632 0.371732 12.5981
RightToes  -9.31324e-010 0 -3.6325e-017
Spine  7.54575 3.98668 6.83797
Spine1  3.83976 7.06458 -13.7448
HEad  2.10014 -11.2595 -3.63741
LeftShoulder1  -0.586279 5.03809 -32.0439
LeftArm  -0.555592 23.8957 -29.827
LeftForeArm  27.215 -13.1935 -6.76514
LeftHand  -0.120992 7.63198 -3.75819
RightShoulder  -0.768334 -5.63984 29.3228
RightArm  36.4986 17.416 53.9445
RightForeArm  4.43049 21.5185 4.99113
RightHand  -0.11164 6.45133 -1.44159
LeftUpLeg  -16.4255 4.12611 -7.64885
LeftLeg  15.7313 -3.98055 -1.72338
LeftFoot  3.01131 -0.120527 0.833527
LeftToes  8.61288e-010 -5.99147e-011 2.1039e-011
495
root  39.1442 37.4657 -0.321058 -139.347 -83.7193 131.963
RightUpLeg  12.5645 0.227226 -7.9463
RightLeg  32.784 12.0976 8.05633
RightFoot  -21.654 0.409659 6.05244
RightToes  -9.31324e-010 0 -3.6325e-017
Spine  8.69914 3.80979 8.85399
Spine1  3.09642 7.30495 -14.3012
HEad  0.640229 -12.4955 -3.55214
LeftShoulder1  -0.726909 5.38094 -32.5717
LeftArm  0.397114 24.0348 -30.3372
LeftForeArm  24.2245 -15.6603 -5.85044
LeftHand  -0.0985036 7.05606 -4.01966
RightShoulder  -0.729125 -5.54565 29.047
RightArm  36.4638 19.0997 54.5711
RightForeArm  5.04568 19.8708 5.58519
RightHand  -0.182774 6.15404 -2.16944
LeftUpLeg  -17.514 3.28122 -6.55026
LeftLeg  12.8387 -2.31109 -1.39169
LeftFoot  3.97452 0.325369 -2.60874
LeftToes  8.61288e-010 -5.99147e-011 2.1039e-011
496
root  40.7935 37.3285 -0.368272 -150.063 -84.3064 142.512
RightUpLeg  12.2335 0.276255 -5.4152
RightLeg  29.125 9.22375 5.2974
RightFoot  -25.3022 0.0928003 2.07763
RightToes  -9.31324e-010 0 -3.6325e-017
Spine  10.1649 3.41527 11.4438
Spine1  3.3482 7.3967 -14.5469
HEad  -1.54253 -11.3625 -4.83507
LeftShoulder1  -0.753141 5.42789 -32.9824
LeftArm  0.580509 22.8564 -31.7834
LeftForeArm  23.2212 -17.2366 -5.22226
LeftHand  -0.0408806 5.57419 -4.19457
RightShoulder  -0.732185 -5.56296 28.8971
RightArm  34.0463 20.7817 54.8517
RightForeArm  6.5619 18.09 6.35539
RightHand  -0.167048 6.2108 -2.00811
LeftUpLeg  -18.1761 2.70858 -4.5272
LeftLeg  9.772 -1.0536 -1.37729
LeftFoot  3.54868 0.678492 -5.36299
LeftToes  8.61288e-010 -5.99147e-011 2.1039e-011
497
root  42.4866 37.3126 -0.396016 -167.839 -85.8383 160.028
RightUpLeg  10.8206 0.543629 -1.75501
RightLeg  27.1278 5.82976 3.00208
RightFoot  -25.7489 -0.33081 -1.25405
RightToes  -9.31324e-010 0 -3.6325e-017
Spine  11.9491 2.48364 14.8131
Spine1  3.52861 7.00248 -14.8313
HEad  -2.97175 -7.8832 -7.21196
LeftShoulder1  -0.751425 5.41365 -33.1813
LeftArm  0.520397 20.8125 -33.875
LeftForeArm  22.9497 -17.6821 -5.11378
LeftHand  -0.0623711 6.51996 -2.37012
RightShoulder  -0.713714 -5.51092 28.8898
RightArm  30.9464 21.8828 54.5394
RightForeArm  7.73762 16.0278 7.29518
RightHand  -0.22 5.97238 -2.57464
LeftUpLeg  -18.2544 2.54585 -2.16159
LeftLeg  6.06705 -1.39012 -1.51592
LeftFoot  1.0075 0.728204 -6.77573
LeftToes  8.61288e-010 -5.99147e-011 2.1039e-011
498
root  44.0799 37.3773 -0.437526 -179.532 -87.5562 172.419
RightUpLeg  7.7536 0.00993964 0.181933
RightLeg  26.6248 3.90277 1.89147
RightFoot  -25.2779 -0.464632 -2.40718
RightToes  -9.31324e-010 0 -3.6325e-017
Spine  11.9881 1.9337 15.2761
Spine1  3.96205 6.08734 -12.8507
HEad  -3.25538 -2.72234 -10.4705
LeftShoulder1  -0.73182 5.36565 -33.1404
LeftArm  0.956505 19.4773 -36.2724
LeftForeArm  23.9571 -18.3909 -4.87581
LeftHand  -0.0641629 6.63467 -2.30217
RightShoulder  -0.728057 -5.53382 29.1863
RightArm  28.4293 21.9993 53.0328
RightForeArm  9.14848 14.239 8.06452
RightHand  -0.183854 6.31871 -2.16197
LeftUpLeg  -18.3797 2.20683 -1.05461
LeftLeg  1.17891 -2.86709 -1.49497
LeftFoot  -2.79647 0.709094 -9.46055
LeftToes  8.61288e-010 -5.99147e-011 2.1039e-011
499
root  45.4929 37.5111 -0.474492 149.309 -88.8394 -155.599
RightUpLeg  4.15121 -1.21581 0.931041
RightLeg  27.3154 3.24615 1.58805
RightFoot  -23.6089 -0.484175 -3.00834
RightToes  -9.31324e-010 0 -3.6325e-017
Spine  11.0316 1.80793 14.3409
Spine1  4.78693 5.12883 -9.83775
HEad  -2.26341 3.20422 -13.8595
LeftShoulder1  -0.682155 5.24164 -33.0903
LeftArm  3.24936 18.6147 -38.3046
LeftForeArm  24.6697 -19.8694 -4.44622
LeftHand  -0.054516 6.35549 -2.24419
RightShoulder  -0.781163 -5.6371 29.9745
RightArm  26.311 21.7395 50.9553
RightForeArm  11.2959 11.9909 8.99146
RightHand  -0.134075 6.4302 -1.64651
LeftUpLeg  -18.0833 2.22286 -0.466492
LeftLeg  -2.83746 -4.08842 -1.18533
LeftFoot  -5.04036 0.800776 -13.7783
LeftToes  8.61288e-010 -5.99147e-011 2.1039e-011
500
root  46.8672 37.7884 -0.502676 59.2159 -89.2824 -65.1826
RightUpLeg  1.7277 -2.62268 1.08831
RightLeg  26.7061 3.1981 1.51869
RightFoot  -20.9302 -0.381781 -2.85624
RightToes  -9.31324e-010 0 -3.6325e-017
Spine  11.0028 1.48874 12.8821
Spine1  5.24245 4.09419 -7.11085
HEad  -0.538143 8.80835 -16.3219
LeftShoulder1  -0.721124 5.32357 -33.4682
LeftArm  7.54133 17.4645 -38.8067
LeftForeArm  24.0557 -21.7163 -4.01115
LeftHand  -0.0569076 5.96584 -3.94793
RightShoulder  -0.760244 -5.57177 30.097
RightArm  22.5964 19.7773 49.3909
RightForeArm  15.2356 9.76656 9.32003
RightHand  -0.0764174 5.52619 -1.14076
LeftUpLeg  -18.7847 2.18846 -0.353899
LeftLeg  -0.589483 -3.36553 -1.15174
LeftFoot  -4.31501 0.79729 -12.5232
LeftToes  8.61288e-010 -5.99147e-011 2.1039e-011
501
root  48.0993 38.0858 -0.495838 -3.32549 -87.9868 -2.91128
RightUpLeg  0.662045 -3.55489 0.618137
RightLeg  25.2113 2.74477 1.18336
RightFoot  -18.2761 -0.288468 -2.74039
RightToes  -9.31324e-010 0 -3.6325e-017
Spine  11.8768 1.17331 11.7183
Spine1  4.82197 3.44534 -5.75557
HEad  1.65881 12.3892 -16.9001
LeftShoulder1  -0.655592 5.18031 -32.9193
LeftArm  10.3742 16.5607 -39.4093
LeftForeArm  23.8753 -23.2502 -3.80214
LeftHand  -0.0948931 6.91937 -3.93688
RightShoulder  -0.83716 -5.73893 30.8198
RightArm  19.2843 15.6924 47.3776
RightForeArm  16.8448 8.46798 8.95365
RightHand  -0.143564 5.07708 -1.89529
LeftUpLeg  -18.2388 2.02925 -0.734218
LeftLeg  3.55162 -1.90862 -0.98407
LeftFoot  -4.48112 0.704606 -11.2778
LeftToes  8.61288e-010 -5.99147e-011 2.1039e-011
502
root  49.2415 38.3586 -0.446181 -8.54647 -86.6531 2.30602
RightUpLeg  -0.173498 -4.90212 -0.0090124
RightLeg  23.0538 2.76308 1.04357
RightFoot  -15.715 -0.213825 -2.78529
RightToes  -9.31324e-010 0 -3.6325e-017
Spine  11.9133 1.09165 11.7559
Spine1  5.11392 3.39185 -5.6403
HEad  3.55257 13.7188 -16.7296
LeftShoulder1  -0.535257 4.90486 -32.0828
LeftArm  11.0675 15.4164 -39.8726
LeftForeArm  24.1909 -24.3998 -3.93609
LeftHand  -0.0876539 6.77491 -3.83904
RightShoulder  -0.964069 -6.05344 31.2196
RightArm  15.9324 10.9701 45.9024
RightForeArm  16.4687 6.69992 8.28408
RightHand  -0.13082 5.03112 -1.73026
LeftUpLeg  -17.5386 2.26887 -0.950061
LeftLeg  8.6364 -2.14313 -0.561109
LeftFoot  -5.0315 0.587861 -10.0904
LeftToes  8.61288e-010 -5.99147e-011 2.1039e-011
